HIERARCHY
ROOT Hips
{
	OFFSET -0.001795 -0.223333 0.028219
	CHANNELS 6 Xposition Yposition Zposition Zrotation Yrotation Xrotation 
	JOINT LeftUpLeg
	{
		OFFSET 0.069520 -0.091406 -0.006815
		CHANNELS 3 Zrotation Yrotation Xrotation
		JOINT LeftLeg
		{
			OFFSET 0.034277 -0.375199 -0.004496
			CHANNELS 3 Zrotation Yrotation Xrotation
			JOINT LeftFoot
			{
				OFFSET -0.013596 -0.397961 -0.043693
				CHANNELS 3 Zrotation Yrotation Xrotation
				JOINT LeftToe
				{
					OFFSET 0.026358 -0.055791 0.119288
					CHANNELS 3 Zrotation Yrotation Xrotation
					End Site
					{
						OFFSET 0.000000 0.000000 0.000000
					}
				}
			}
		}
	}
	JOINT RightUpLeg
	{
		OFFSET -0.067670 -0.090522 -0.004320
		CHANNELS 3 Zrotation Yrotation Xrotation
		JOINT RightLeg
		{
			OFFSET -0.038290 -0.382569 -0.008850
			CHANNELS 3 Zrotation Yrotation Xrotation
			JOINT RightFoot
			{
				OFFSET 0.015774 -0.398415 -0.042312
				CHANNELS 3 Zrotation Yrotation Xrotation
				JOINT RightToe
				{
					OFFSET -0.025372 -0.048144 0.123348
					CHANNELS 3 Zrotation Yrotation Xrotation
					End Site
					{
						OFFSET 0.000000 0.000000 0.000000
					}
				}
			}
		}
	}
	JOINT Spine
	{
		OFFSET -0.002533 0.108963 -0.026696
		CHANNELS 3 Zrotation Yrotation Xrotation
		JOINT Spine1
		{
			OFFSET 0.005487 0.135180 0.001092
			CHANNELS 3 Zrotation Yrotation Xrotation
			JOINT Spine2
			{
				OFFSET 0.001457 0.052922 0.025425
				CHANNELS 3 Zrotation Yrotation Xrotation
				JOINT Neck
				{
					OFFSET -0.002778 0.213870 -0.042857
					CHANNELS 3 Zrotation Yrotation Xrotation
					JOINT Head
					{
						OFFSET 0.005152 0.064970 0.051349
						CHANNELS 3 Zrotation Yrotation Xrotation
						End Site
						{
							OFFSET 0.000000 0.000000 0.000000
						}
					}
				}
				JOINT LeftShoulder
				{
					OFFSET 0.078845 0.121749 -0.034090
					CHANNELS 3 Zrotation Yrotation Xrotation
					JOINT LeftArm
					{
						OFFSET 0.090977 0.030469 -0.008868
						CHANNELS 3 Zrotation Yrotation Xrotation
						JOINT LeftForeArm
						{
							OFFSET 0.259612 -0.012772 -0.027456
							CHANNELS 3 Zrotation Yrotation Xrotation
							JOINT LeftHand
							{
								OFFSET 0.249234 0.008986 -0.001171
								CHANNELS 3 Zrotation Yrotation Xrotation
								End Site
								{
									OFFSET 0.000000 0.000000 0.000000
								}
							}
						}
					}
				}
				JOINT RightShoulder
				{
					OFFSET -0.081759 0.118833 -0.038615
					CHANNELS 3 Zrotation Yrotation Xrotation
					JOINT RightArm
					{
						OFFSET -0.096012 0.032551 -0.009143
						CHANNELS 3 Zrotation Yrotation Xrotation
						JOINT RightForeArm
						{
							OFFSET -0.253742 -0.013329 -0.021401
							CHANNELS 3 Zrotation Yrotation Xrotation
							JOINT RightHand
							{
								OFFSET -0.255298 0.007772 -0.005559
								CHANNELS 3 Zrotation Yrotation Xrotation
								End Site
								{
									OFFSET 0.000000 0.000000 0.000000
								}
							}
						}
					}
				}
			}
		}
	}
}
MOTION
Frames: 10
Frame Time: 0.050000
0.837563 0.913640 0.141475 -3.115864 31.638564 -2.444756 -7.402566 1.168504 12.558016 -16.587903 0.774124 10.952984 5.746258 12.359807 5.240463 0.000000 0.000000 0.000000 16.422473 3.176631 -17.819795 2.276038 -1.209763 14.376943 -8.599462 -16.739349 15.432002 0.000000 0.000000 0.000000 9.826313 -6.417180 27.893620 -4.831549 1.792014 -29.492146 -6.870248 -8.290530 31.364721 10.229050 -1.223666 -38.351634 0.000000 0.000000 0.000000 -13.713529 -16.225364 5.161036 -32.645683 -22.593595 0.052664 -21.708074 -55.919365 12.509909 0.000000 0.000000 0.000000 21.004687 -7.833388 -3.110894 43.675073 1.328203 -6.732958 19.151515 32.183190 7.661576 0.000000 0.000000 0.000000 
0.888029 0.908163 0.149326 -2.029583 29.479212 -3.024157 -3.279696 0.619853 8.356942 -28.403040 2.870213 22.999565 1.376342 8.921642 12.839736 0.000000 0.000000 0.000000 14.040752 2.918839 -16.660829 1.037562 -1.223059 19.295132 -7.710858 -17.056620 8.174301 0.000000 0.000000 0.000000 11.899142 -6.723845 27.444084 -5.375821 1.996289 -28.379479 -5.446220 -4.949099 29.261603 9.049859 -0.350101 -37.753745 0.000000 0.000000 0.000000 -15.822888 -17.185017 5.075481 -33.166010 -19.691161 -0.221466 -24.721311 -52.634022 12.820619 0.000000 0.000000 0.000000 20.742595 -6.069312 -1.647348 43.981509 3.634201 -5.947557 16.503467 35.766403 7.905702 0.000000 0.000000 0.000000 
0.932194 0.906595 0.155441 -1.629492 28.792693 -4.546486 4.162459 -0.236544 2.919205 -39.162124 6.793788 35.912054 -3.240412 4.598689 20.902040 0.000000 0.000000 0.000000 11.113655 2.449206 -14.733598 1.535621 -1.833326 22.738473 -7.215295 -17.123721 4.378970 0.000000 0.000000 0.000000 12.889024 -7.494154 29.092149 -5.155118 1.961267 -28.813590 -4.563742 -1.685356 28.377587 9.560881 -0.474851 -35.057895 0.000000 0.000000 0.000000 -17.047810 -16.777137 4.080581 -33.521909 -18.649604 -0.094387 -28.219789 -49.251089 13.023765 0.000000 0.000000 0.000000 21.952900 -4.033472 0.323055 42.788990 8.181163 -4.628320 13.209763 36.999930 7.236429 0.000000 0.000000 0.000000 
0.972914 0.909366 0.158651 -0.206818 27.918220 -4.846970 9.249565 -0.664171 -2.935259 -41.785739 9.800750 44.840679 -6.690265 1.047198 25.569497 0.000000 0.000000 0.000000 6.280808 1.638566 -11.620876 3.624380 -2.465899 22.033032 -6.355227 -15.981655 1.588919 0.000000 0.000000 0.000000 12.125452 -7.077977 29.134938 -4.983042 1.996047 -27.875311 -2.843686 1.410632 27.851149 10.063004 -0.382983 -34.510505 0.000000 0.000000 0.000000 -17.697792 -18.504459 4.160918 -33.273410 -16.697281 -0.236587 -27.351574 -47.250824 11.653827 0.000000 0.000000 0.000000 22.011215 -2.696663 1.798008 42.814685 11.812895 -3.572920 10.108253 38.975616 6.775366 0.000000 0.000000 0.000000 
1.012563 0.916996 0.159287 2.180809 25.322668 -4.178965 12.855858 -0.801278 -7.244938 -37.338245 9.609751 47.144290 -6.306676 1.848382 26.346430 0.000000 0.000000 0.000000 1.710152 0.984127 -9.807156 3.199772 -2.027149 21.927252 -5.102030 -12.939454 1.450657 0.000000 0.000000 0.000000 10.500195 -6.536489 30.172933 -5.321281 2.034938 -28.036085 -2.177457 4.968933 27.191436 11.411014 -0.791193 -34.153361 0.000000 0.000000 0.000000 -18.063779 -17.542318 3.055567 -32.171148 -13.805367 -0.640049 -28.486972 -48.516794 12.127085 0.000000 0.000000 0.000000 22.402848 -2.543167 2.406127 41.549727 14.519917 -2.761248 9.784679 40.411779 7.047137 0.000000 0.000000 0.000000 
1.053211 0.925807 0.157557 4.364357 23.309240 -3.228545 14.926137 -0.783093 -9.365900 -28.119579 6.211146 43.545488 5.513082 15.650400 18.908577 0.000000 0.000000 0.000000 -3.624402 0.252275 -7.536695 3.890926 -1.762366 19.268674 -3.935527 -10.049979 2.446972 0.000000 0.000000 0.000000 9.177866 -5.802954 29.969697 -6.075378 2.178265 -27.851879 -2.088292 6.239344 27.086911 9.841469 -0.123708 -32.903607 0.000000 0.000000 0.000000 -19.320597 -16.601499 2.380431 -29.768427 -12.303189 -0.814989 -28.645748 -48.763208 12.328885 0.000000 0.000000 0.000000 22.866214 -1.728620 2.981659 40.230768 16.328672 -2.228161 10.148133 43.465785 7.806102 0.000000 0.000000 0.000000 
1.095212 0.930457 0.154510 5.424729 20.309246 -1.629206 16.588045 -0.764603 -8.400924 -18.042426 2.793015 31.893310 11.417883 22.975173 13.781024 0.000000 0.000000 0.000000 -7.089264 -0.072591 -7.820221 2.894081 -1.100245 18.022260 -2.660461 -7.078644 3.512416 0.000000 0.000000 0.000000 9.381945 -5.315140 28.749344 -6.452763 2.225124 -27.573732 -2.816661 7.808089 27.088881 9.637038 -0.078440 -32.002743 0.000000 0.000000 0.000000 -17.873472 -15.273858 1.899315 -28.584028 -11.235148 -1.030204 -29.325306 -50.629792 12.990272 0.000000 0.000000 0.000000 21.442101 -1.587283 2.878947 40.843932 17.810597 -1.568892 12.276425 46.951118 9.805924 0.000000 0.000000 0.000000 
1.138369 0.929502 0.151538 6.225206 17.678609 -0.569928 18.094612 -0.870341 -5.313837 -8.785124 0.740252 16.897902 7.409491 17.837517 15.052323 0.000000 0.000000 0.000000 -11.050955 -0.459647 -8.380723 2.946015 -0.926984 17.695203 -1.448323 -4.395554 3.842850 0.000000 0.000000 0.000000 8.884673 -4.719728 27.690978 -7.194136 2.335362 -27.547707 -2.853050 8.573733 26.987634 9.164581 0.193528 -32.712818 0.000000 0.000000 0.000000 -16.381913 -13.646961 1.547670 -26.552537 -10.731366 -1.184526 -30.796340 -52.482586 14.222152 0.000000 0.000000 0.000000 21.639666 -2.166361 2.396021 39.246231 18.274295 -1.487326 16.001849 50.810916 12.668070 0.000000 0.000000 0.000000 
1.183248 0.923314 0.148494 5.695438 15.746897 -0.785152 20.751301 -1.050729 -3.414000 -0.983748 -0.137369 5.722280 -0.166109 10.170530 24.304863 0.000000 0.000000 0.000000 -13.167775 -0.618601 -7.658356 2.086176 -0.515975 16.761147 -0.685572 -2.597265 3.318538 0.000000 0.000000 0.000000 8.044640 -4.051471 26.293445 -6.045882 2.153106 -26.834931 -3.444725 9.159087 27.581145 10.208073 -0.398760 -32.760551 0.000000 0.000000 0.000000 -14.662894 -12.290801 1.302251 -25.233810 -11.268963 -1.166939 -31.511200 -53.872903 14.875451 0.000000 0.000000 0.000000 21.943592 -1.689010 2.657618 38.290107 18.950365 -1.344040 18.852150 54.275204 15.212340 0.000000 0.000000 0.000000 
1.230593 0.913744 0.144267 5.394114 13.356346 -1.403092 21.401864 -0.996690 -2.297008 2.664932 -0.409697 2.633442 -5.565283 4.819629 29.265348 0.000000 0.000000 0.000000 -16.056293 -0.816832 -7.226978 1.609497 -0.249715 16.525582 0.330172 -0.169755 2.852551 0.000000 0.000000 0.000000 6.847376 -3.424643 25.531260 -6.938499 2.376107 -26.148696 -2.206731 9.051366 27.705239 11.462926 -1.459086 -31.978814 0.000000 0.000000 0.000000 -14.172844 -12.803919 1.989231 -22.339123 -10.636556 -1.260938 -30.462440 -54.196928 14.693128 0.000000 0.000000 0.000000 22.233281 -2.117669 2.072614 37.394636 18.617161 -1.489380 20.899791 55.857640 16.721865 0.000000 0.000000 0.000000 
